# Blender v2.72 (sub 0) OBJ File: ''
# www.blender.org
g Cube
v -21.686674 0.758087 21.686674
v -21.686674 0.758087 -21.686676
v 21.686678 0.758087 -21.686672
v 21.686668 0.758087 21.686684
v -21.686686 -0.758087 21.686665
v -21.686663 -0.758087 -21.686689
v 21.686684 -0.758087 -21.686668
v 21.686674 -0.758087 21.686676
v -21.686682 0.000000 21.686670
v -21.686668 0.000000 -21.686682
v 21.686682 0.000000 -21.686670
v 21.686670 0.000000 21.686682
vt 0.999826 0.378228
vt 0.999826 0.566908
vt 0.000174 0.566908
vt 0.999826 0.567255
vt 0.999826 0.755935
vt 0.000174 0.755935
vt 0.000174 0.189201
vt 0.999826 0.189201
vt 0.999826 0.377880
vt 0.999826 0.188853
vt 0.000174 0.188854
vt 0.000174 0.000174
vt 0.000174 0.378228
vt 0.000174 0.567255
vt 0.000174 0.377881
vt 0.999826 0.000174
vn 1.000000 -0.000000 0.000000
vn -0.000000 -0.000000 1.000000
vn -1.000000 -0.000000 -0.000000
vn 0.000000 0.000000 -1.000000
s off
f 1/1/1 9/2/1 10/3/1
f 10/4/2 6/5/2 7/6/2
f 11/7/3 12/8/3 4/9/3
f 9/10/4 12/11/4 8/12/4
f 2/13/1 1/1/1 10/3/1
f 11/14/2 10/4/2 7/6/2
f 3/15/3 11/7/3 4/9/3
f 5/16/4 9/10/4 8/12/4
